<?xml version="1.0" encoding="UTF-8" standalone="no"?><!DOCTYPE svg PUBLIC "-//W3C//DTD SVG 1.1//EN" "http://www.w3.org/Graphics/SVG/1.1/DTD/svg11.dtd"><svg width="100%" height="100%" viewBox="0 0 33334 18750" version="1.1" xmlns="http://www.w3.org/2000/svg" xmlns:xlink="http://www.w3.org/1999/xlink" xml:space="preserve" xmlns:serif="http://www.serif.com/" style="fill-rule:evenodd;clip-rule:evenodd;stroke-linejoin:round;stroke-miterlimit:2;"><g><path d="M23914.554,5360.695l1699.608,-884.758l0,820.642l-1687.429,786.863l-12.175,5.558l0,-728.3l-0.004,-0.004Z"/><path d="M11385.662,6986.666l-603.554,0l0,-804.738l603.554,0l0,-804.737l1005.925,0l0,804.737l1408.296,0l0,804.738l-1408.296,0l0,2414.217l1408.292,0l0,1005.925l-1408.479,0c-226.279,0 -435.212,-74.879 -603.346,-201.188c-239.533,-179.946 -396.263,-464.275 -402.392,-785.196l0,-2433.758Z"/><path d="M14041.233,7992.408c186.708,-917.821 999.092,-1609.383 1971.679,-1609.292c972.458,0.092 1784.629,691.617 1971.304,1609.292c26.475,130.142 40.367,264.833 40.354,402.742c-0.012,137.65 -13.879,272.092 -40.279,401.996l-2957.333,0c93.3,458.883 499.408,804.696 985.671,804.738c328.758,0.029 620.908,-158 804.538,-402.183l1039.754,0c-310.725,710.346 -1020.004,1207.183 -1844.383,1207.108c-972.592,-0.092 -1784.85,-691.804 -1971.383,-1609.663c-24.642,-121.254 -38.362,-246.458 -40.092,-374.537l0,-55.288c1.729,-128.212 15.479,-253.542 40.171,-374.917l0,0.004Zm2957.221,0c-93.375,-458.792 -499.438,-804.508 -985.633,-804.554c-486.258,-0.046 -892.429,345.688 -985.821,804.554l1971.454,0Z"/><path d="M22792.771,7992.408c186.708,-917.821 999.092,-1609.383 1971.679,-1609.292c972.458,0.092 1784.629,691.617 1971.304,1609.292c26.475,130.142 40.367,264.833 40.354,402.742c-0.013,137.65 -13.879,272.092 -40.279,401.996l-2957.333,0c93.3,458.883 499.408,804.696 985.671,804.738c328.758,0.029 620.908,-158 804.538,-402.183l1039.754,0c-310.725,710.346 -1020.004,1207.183 -1844.383,1207.108c-972.592,-0.092 -1784.85,-691.804 -1971.383,-1609.663c-24.642,-121.254 -38.362,-246.458 -40.092,-374.537l0,-55.288c1.729,-128.212 15.479,-253.542 40.171,-374.917l0,0.004Zm2957.221,0c-93.375,-458.792 -499.438,-804.508 -985.633,-804.554c-486.258,-0.046 -892.429,345.688 -985.821,804.554l1971.454,0Z"/><path d="M18467.437,7992.637c186.617,-917.938 999.058,-1609.617 1971.725,-1609.525c900.079,0.083 1662.846,592.508 1919.421,1408.342l-1048.25,0c-173.9,-360.413 -498.65,-603.188 -870.312,-603.6l-0.95,0c-437.683,-0.092 -810.458,336.117 -948.683,804.783c-27.388,92.858 -45.567,190.921 -53.221,292.608c-2.721,36.154 -4.108,72.763 -4.108,109.763c0,36.996 1.387,73.608 4.112,109.763c7.654,101.683 25.833,199.746 53.221,292.604c138.208,468.604 510.896,804.692 948.5,804.783l1.1,0c371.692,-0.396 696.471,-243.196 870.371,-603.646l1048.213,0c-256.633,815.942 -1019.588,1408.379 -1919.779,1408.296c-972.508,-0.092 -1784.713,-691.688 -1971.333,-1609.433c-26.458,-130.1 -40.337,-264.742 -40.325,-402.6c0.012,-137.7 13.887,-272.188 40.308,-402.137l-0.008,0Z"/><path d="M6597.396,7992.408c186.708,-917.821 999.092,-1609.383 1971.679,-1609.292c972.458,0.092 1784.629,691.617 1971.304,1609.292c26.475,130.142 40.367,264.833 40.354,402.742c-0.013,137.65 -13.879,272.092 -40.279,401.996l-2957.333,0c93.3,458.883 499.408,804.696 985.671,804.738c328.758,0.029 620.908,-158 804.538,-402.183l1039.754,0c-310.725,710.346 -1020.004,1207.183 -1844.383,1207.108c-972.592,-0.092 -1784.85,-691.804 -1971.383,-1609.663c-24.642,-121.254 -38.363,-246.458 -40.092,-374.537l0,-55.288c1.729,-128.212 15.479,-253.542 40.171,-374.917l0,0.004Zm2957.221,0c-93.375,-458.792 -499.438,-804.508 -985.633,-804.554c-486.258,-0.046 -892.429,345.688 -985.821,804.554l1971.454,0Z"/><text x="13845.458px" y="14231.779px" style="font-family:'ArialMT', 'Arial', sans-serif;font-size:3463.958px;">STUDIO</text></g></svg>