<?xml version="1.0" encoding="UTF-8"?>
<svg xmlns="http://www.w3.org/2000/svg" xmlns:xlink="http://www.w3.org/1999/xlink" xmlns:serif="http://www.serif.com/" width="100%" height="100%" viewBox="0 0 8000 4500" version="1.1" xml:space="preserve" style="fill-rule: evenodd; clip-rule: evenodd; stroke-linejoin: round; stroke-miterlimit: 2; background: transparent;"><g><path d="M5739.492,1286.567l407.906,-212.342l0,196.954l-404.983,188.847l-2.922,1.334l0,-174.792Z"/><path d="M2732.558,1676.8l-144.853,0l0,-193.137l144.853,0l0,-193.137l241.422,0l0,193.137l337.991,0l0,193.137l-337.991,0l0,579.412l337.99,0l0,241.422l-338.035,0c-54.307,0 -104.451,-17.971 -144.803,-48.285c-57.488,-43.187 -95.103,-111.426 -96.574,-188.447l0,-584.102Z"/><path d="M3369.895,1918.178c44.81,-220.277 239.782,-386.252 473.203,-386.23c233.39,0.022 428.311,165.988 473.113,386.23c6.354,31.234 9.688,63.56 9.685,96.658c-0.003,33.036 -3.331,65.302 -9.667,96.479l-709.76,0c22.392,110.132 119.858,193.127 236.561,193.137c78.902,0.007 149.018,-37.92 193.089,-96.524l249.541,0c-74.574,170.483 -244.801,289.724 -442.652,289.706c-233.422,-0.022 -428.364,-166.033 -473.132,-386.319c-5.914,-29.101 -9.207,-59.15 -9.622,-89.889l0,-13.269c0.415,-30.771 3.715,-60.85 9.641,-89.98l-0,0Zm709.733,0c-22.41,-110.11 -119.865,-193.082 -236.552,-193.093c-116.702,-0.011 -214.183,82.965 -236.597,193.093l473.149,0l-0,0Z"/><path d="M5470.264,1918.178c44.81,-220.277 239.782,-386.252 473.203,-386.23c233.39,0.022 428.311,165.988 473.113,386.23c6.354,31.234 9.688,63.56 9.685,96.658c-0.003,33.036 -3.331,65.302 -9.667,96.479l-709.76,0c22.392,110.132 119.858,193.127 236.561,193.137c78.902,0.007 149.018,-37.92 193.089,-96.524l249.541,0c-74.574,170.483 -244.801,289.724 -442.652,289.706c-233.422,-0.022 -428.364,-166.033 -473.132,-386.319c-5.914,-29.101 -9.207,-59.15 -9.622,-89.889l0,-13.269c0.415,-30.771 3.715,-60.85 9.641,-89.98l-0,0Zm709.733,0c-22.41,-110.11 -119.865,-193.082 -236.552,-193.093c-116.702,-0.011 -214.183,82.965 -236.597,193.093l473.149,0l-0,0Z"/><path d="M4432.184,1918.233c44.788,-220.305 239.774,-386.308 473.214,-386.286c216.019,0.02 399.083,142.202 460.661,338.002l-251.58,0c-41.736,-86.499 -119.676,-144.765 -208.875,-144.864l-0.228,0c-105.044,-0.022 -194.51,80.668 -227.684,193.148c-6.573,22.286 -10.936,45.821 -12.773,70.226c-0.653,8.677 -0.986,17.463 -0.986,26.343c0,8.879 0.333,17.666 0.987,26.343c1.837,24.404 6.2,47.939 12.773,70.225c33.17,112.465 122.615,193.126 227.64,193.148l0.264,0c89.206,-0.095 167.153,-58.367 208.889,-144.875l251.571,0c-61.592,195.826 -244.701,338.011 -460.747,337.991c-233.402,-0.022 -428.331,-166.005 -473.12,-386.264c-6.35,-31.224 -9.681,-63.538 -9.678,-96.624c0.003,-33.048 3.333,-65.325 9.674,-96.513l-0.001,-0Z"/><path d="M1583.374,1918.178c44.81,-220.277 239.782,-386.252 473.203,-386.23c233.39,0.022 428.311,165.988 473.113,386.23c6.354,31.234 9.688,63.56 9.685,96.658c-0.003,33.036 -3.331,65.302 -9.667,96.479l-709.76,0c22.392,110.132 119.858,193.127 236.561,193.137c78.902,0.007 149.018,-37.92 193.089,-96.524l249.541,0c-74.574,170.483 -244.801,289.724 -442.652,289.706c-233.422,-0.022 -428.364,-166.033 -473.132,-386.319c-5.914,-29.101 -9.207,-59.15 -9.622,-89.889l0,-13.269c0.415,-30.771 3.715,-60.85 9.641,-89.98l-0,0Zm709.733,0c-22.41,-110.11 -119.865,-193.082 -236.552,-193.093c-116.702,-0.011 -214.183,82.965 -236.597,193.093l473.149,0l-0,0Z"/><g transform="matrix(831.350401,0,0,831.350401,6463.61148,3415.626687)"/><text x="3322.909px" y="3415.627px" style="font-family:'ArialMT', 'Arial', sans-serif;font-size:831.35px;fill:#f00;">STUDIO</text></g><g id="STUDIO"/></svg>