<?xml version="1.0" encoding="UTF-8" standalone="no"?><!DOCTYPE svg PUBLIC "-//W3C//DTD SVG 1.1//EN" "http://www.w3.org/Graphics/SVG/1.1/DTD/svg11.dtd"><svg width="100%" height="100%" viewBox="0 0 2048 2048" version="1.1" xmlns="http://www.w3.org/2000/svg" xmlns:xlink="http://www.w3.org/1999/xlink" xml:space="preserve" xmlns:serif="http://www.serif.com/" style="fill-rule:evenodd;clip-rule:evenodd;stroke-linejoin:round;stroke-miterlimit:2;"><path d="M264.02,657.725l240.02,0l0,214.287l-280.04,0l0,771.427l280.04,0l0,214.287l-240.02,0c-13.633,0 -27,-1.22 -40.02,-3.567c-100.44,-18.093 -179.793,-103.113 -196.673,-210.72c-2.187,-13.94 -3.327,-28.26 -3.327,-42.86l0,-685.713c0,-14.6 1.14,-28.92 3.327,-42.86c16.88,-107.607 96.233,-192.627 196.673,-210.72c13.013,-2.347 26.387,-3.567 40.02,-3.567l0,0.007Z" style="fill:#ec0000;"/><path d="M1824,872.012l-280.04,0l0,-214.287l240.02,0c13.633,0 27,1.22 40.02,3.567c100.44,18.093 179.793,103.113 196.673,210.72c2.187,13.94 3.327,28.26 3.327,42.86l0,718.353c-0.407,3.427 -0.873,6.833 -1.407,10.213c-16.987,108.293 -97.247,193.713 -198.593,211.06c-12.407,2.127 -25.133,3.227 -38.1,3.227l-240.02,0l0,-214.287l278.12,0l0,-771.427Z" style="fill:#ec0000;"/><circle cx="1024" cy="1257.725" r="200" style="fill:#ec0000;"/><circle cx="1504" cy="1257.725" r="200" style="fill:#ec0000;"/><circle cx="544" cy="1257.725" r="200" style="fill:#ec0000;"/></svg>