<?xml version="1.0" encoding="UTF-8" standalone="no"?><!DOCTYPE svg PUBLIC "-//W3C//DTD SVG 1.1//EN" "http://www.w3.org/Graphics/SVG/1.1/DTD/svg11.dtd"><svg width="100%" height="100%" viewBox="0 0 512 512" version="1.1" xmlns="http://www.w3.org/2000/svg" xmlns:xlink="http://www.w3.org/1999/xlink" xml:space="preserve" xmlns:serif="http://www.serif.com/" style="fill-rule:evenodd;clip-rule:evenodd;stroke-linejoin:round;stroke-miterlimit:2;"><g><g><path d="M66.007,105.998l60.007,0l0,53.574l-70.007,0l0,192.855l70.007,0l0,53.574l-60.007,0c-3.408,0 -6.75,-0.308 -10.008,-0.892c-25.108,-4.525 -44.949,-25.775 -49.166,-52.682c-0.55,-3.483 -0.833,-7.067 -0.833,-10.716l0,-171.422c0,-3.65 0.283,-7.233 0.833,-10.716c4.217,-26.9 24.058,-48.158 49.166,-52.682c3.25,-0.583 6.6,-0.892 10.008,-0.892Z" style="fill:#ec0000;"/><path d="M456.001,159.572l-70.015,0l0,-53.574l60.007,0c3.408,0 6.75,0.308 10.008,0.892c25.108,4.525 44.949,25.775 49.166,52.682c0.55,3.483 0.833,7.067 0.833,10.716l0,179.589c-0.1,0.858 -0.217,1.708 -0.35,2.55c-4.25,27.075 -24.308,48.424 -49.649,52.766c-3.1,0.533 -6.283,0.808 -9.525,0.808l-60.007,0l0,-53.574l69.532,0l0,-192.855Z" style="fill:#ec0000;"/><circle cx="255.996" cy="255.996" r="49.999" style="fill:#ec0000;"/><circle cx="375.994" cy="255.996" r="49.999" style="fill:#ec0000;"/><circle cx="135.998" cy="255.996" r="49.999" style="fill:#ec0000;"/></g></g></svg>