<?xml version="1.0" encoding="UTF-8" standalone="no"?><!DOCTYPE svg PUBLIC "-//W3C//DTD SVG 1.1//EN" "http://www.w3.org/Graphics/SVG/1.1/DTD/svg11.dtd"><svg width="100%" height="100%" viewBox="0 0 5225 5225" version="1.1" xmlns="http://www.w3.org/2000/svg" xmlns:xlink="http://www.w3.org/1999/xlink" xml:space="preserve" xmlns:serif="http://www.serif.com/" style="fill-rule:evenodd;clip-rule:evenodd;stroke-linejoin:round;stroke-miterlimit:2;"><rect id="Mesa-de-trabajo3" serif:id="Mesa de trabajo3" x="0" y="0" width="5225" height="5225" style="fill:none;"/><path d="M4404.855,2097.962l420.302,-218.795l0,202.939l-417.291,194.586l-3.011,1.375l0,-180.104Z"/><path d="M1306.54,2500.054l-149.255,0l0,-199.007l149.255,0l0,-199.007l248.759,0l0,199.007l348.262,0l0,199.007l-348.262,0l0,597.02l348.262,0l0,248.759l-348.308,0c-55.958,0 -107.625,-18.517 -149.204,-49.752c-59.235,-44.499 -97.993,-114.813 -99.509,-194.174l0,-601.853Z"/><path d="M1963.246,2748.767c46.171,-226.971 247.069,-397.99 487.584,-397.968c240.483,0.022 441.327,171.033 487.491,397.968c6.547,32.183 9.983,65.491 9.98,99.596c-0.003,34.04 -3.432,67.286 -9.961,99.411l-731.33,0c23.073,113.479 123.501,198.996 243.75,199.007c81.3,0.007 153.547,-39.072 198.957,-99.457l257.124,0c-76.84,175.664 -252.241,298.529 -456.104,298.51c-240.515,-0.022 -441.381,-171.079 -487.51,-398.06c-6.094,-29.986 -9.487,-60.948 -9.915,-92.62l0,-13.672c0.428,-31.706 3.828,-62.699 9.934,-92.714l-0,-0Zm731.302,0c-23.091,-113.456 -123.508,-198.95 -243.741,-198.961c-120.249,-0.011 -220.693,85.487 -243.787,198.961l487.528,0l-0,0Z"/><path d="M4127.446,2748.767c46.171,-226.971 247.069,-397.99 487.584,-397.968c240.483,0.022 441.327,171.033 487.491,397.968c6.547,32.183 9.983,65.491 9.98,99.596c-0.003,34.04 -3.432,67.286 -9.961,99.411l-731.33,0c23.073,113.479 123.501,198.996 243.75,199.007c81.3,0.007 153.547,-39.072 198.957,-99.457l257.124,0c-76.84,175.664 -252.241,298.529 -456.104,298.51c-240.515,-0.022 -441.381,-171.079 -487.51,-398.06c-6.094,-29.986 -9.487,-60.948 -9.915,-92.62l0,-13.672c0.428,-31.706 3.828,-62.699 9.934,-92.714l-0,-0Zm731.302,0c-23.091,-113.456 -123.508,-198.95 -243.741,-198.961c-120.249,-0.011 -220.693,85.487 -243.787,198.961l487.528,0l-0,0Z"/><path d="M3057.818,2748.824c46.149,-227 247.06,-398.047 487.595,-398.025c222.584,0.021 411.211,146.524 474.66,348.274l-259.225,0c-43.004,-89.128 -123.313,-149.164 -215.223,-149.266l-0.235,0c-108.236,-0.022 -200.421,83.119 -234.604,199.018c-6.773,22.964 -11.269,47.214 -13.161,72.36c-0.673,8.94 -1.016,17.994 -1.016,27.143c0,9.149 0.344,18.203 1.017,27.144c1.892,25.146 6.388,49.396 13.161,72.36c34.178,115.883 126.342,198.995 234.558,199.018l0.273,0c91.917,-0.098 172.233,-60.141 215.238,-149.278l259.216,0c-63.464,201.777 -252.137,348.283 -474.749,348.262c-240.495,-0.022 -441.348,-171.05 -487.498,-398.002c-6.542,-32.173 -9.976,-65.469 -9.973,-99.561c0.003,-34.052 3.434,-67.31 9.968,-99.446l-0.001,-0Z"/><path d="M122.433,2748.767c46.171,-226.971 247.069,-397.99 487.584,-397.968c240.483,0.022 441.327,171.033 487.491,397.968c6.547,32.183 9.983,65.491 9.98,99.596c-0.003,34.04 -3.432,67.286 -9.961,99.411l-731.33,0c23.073,113.479 123.501,198.996 243.75,199.007c81.3,0.007 153.547,-39.072 198.957,-99.457l257.124,0c-76.84,175.664 -252.241,298.529 -456.104,298.51c-240.515,-0.022 -441.381,-171.079 -487.51,-398.06c-6.094,-29.986 -9.487,-60.948 -9.915,-92.62l0,-13.672c0.428,-31.706 3.828,-62.699 9.934,-92.714l-0,-0Zm731.302,0c-23.091,-113.456 -123.508,-198.95 -243.741,-198.961c-120.249,-0.011 -220.693,85.487 -243.787,198.961l487.528,0l-0,0Z"/></svg>