<?xml version="1.0" encoding="UTF-8" standalone="no"?><!DOCTYPE svg PUBLIC "-//W3C//DTD SVG 1.1//EN" "http://www.w3.org/Graphics/SVG/1.1/DTD/svg11.dtd"><svg width="100%" height="100%" viewBox="0 0 5225 5225" version="1.1" xmlns="http://www.w3.org/2000/svg" xmlns:xlink="http://www.w3.org/1999/xlink" xml:space="preserve" xmlns:serif="http://www.serif.com/" style="fill-rule:evenodd;clip-rule:evenodd;stroke-linejoin:round;stroke-miterlimit:2;"><rect id="Mesa-de-trabajo2" serif:id="Mesa de trabajo2" x="0" y="0" width="5225" height="5225" style="fill:none;"/><path d="M712.546,1212.5l600.046,0l0,500l-700.092,0l0,1799.999l700.092,0l0,500l-600.046,0c-34.084,0 -67.507,-2.848 -100.047,-8.318c-251.098,-42.213 -449.488,-240.598 -491.688,-491.682c-5.466,-32.524 -8.312,-65.932 -8.312,-100l0,-1600c0,-34.067 2.846,-67.475 8.312,-100c42.2,-251.084 240.59,-449.469 491.688,-491.682c32.539,-5.47 65.963,-8.318 100.047,-8.318Z" style="fill:#ec0000;"/><path d="M4612.499,1712.501l-700.092,0l0,-500l600.046,0c34.084,0 67.507,2.848 100.047,8.318c251.098,42.213 449.488,240.598 491.688,491.682c5.466,32.524 8.312,65.932 8.312,100l0,1676.165c-1.015,7.995 -2.187,15.941 -3.514,23.835c-42.468,252.681 -243.12,451.99 -496.486,492.468c-31.023,4.956 -62.838,7.532 -95.248,7.532l-600.046,0l0,-500l695.295,0l0,-1799.999Z" style="fill:#ec0000;"/><circle cx="2612.5" cy="2612.501" r="500" style="fill:#ec0000;"/><circle cx="3812.5" cy="2612.501" r="500" style="fill:#ec0000;"/><circle cx="1412.5" cy="2612.501" r="500" style="fill:#ec0000;"/></svg>