<?xml version="1.0" encoding="UTF-8" standalone="no"?><!DOCTYPE svg PUBLIC "-//W3C//DTD SVG 1.1//EN" "http://www.w3.org/Graphics/SVG/1.1/DTD/svg11.dtd"><svg width="100%" height="100%" viewBox="0 0 88892 37500" version="1.1" xmlns="http://www.w3.org/2000/svg" xmlns:xlink="http://www.w3.org/1999/xlink" xml:space="preserve" xmlns:serif="http://www.serif.com/" shape-rendering="geometricPrecision" text-rendering="geometricPrecision" style="fill-rule:evenodd;clip-rule:evenodd;stroke-linejoin:round;stroke-miterlimit:2;"><path d="M76197.005,9235.583l4583.042,-2385.781l0,2212.88l-4550.209,2121.796l-32.832,14.988l0,-1963.883Z"/><path d="M42412.466,13620.066l-1627.505,0l0,-2170.003l1627.505,0l0,-2170.003l2712.507,0l0,2170.003l3797.508,0l0,2170.003l-3797.508,0l0,6510.01l3797.504,0l0,2712.507l-3798.011,0c-610.173,0 -1173.565,-201.909 -1626.94,-542.503c-645.91,-485.227 -1068.535,-1251.935 -1085.059,-2117.307l0,-6562.707Z"/><path d="M49573.297,16332.07c503.459,-2474.932 2694.083,-4339.749 5316.692,-4339.504c2622.264,0.244 4812.304,1864.969 5315.687,4339.504c71.388,350.93 108.853,714.126 108.819,1086.007c-0.033,371.177 -37.426,733.698 -108.614,1083.997l-7974.54,0c251.591,1237.392 1346.675,2169.884 2657.896,2170.003c886.509,0.081 1674.301,-426.046 2169.458,-1084.499l2803.725,0c-837.88,1915.47 -2750.474,3255.211 -4973.432,3255.005c-2622.618,-0.244 -4812.897,-1865.477 -5315.893,-4340.509c-66.45,-326.97 -103.45,-664.583 -108.111,-1009.948l0,-149.083c4.666,-345.724 41.738,-683.681 108.317,-1010.972l-0.005,0Zm7974.234,0c-251.787,-1237.143 -1346.752,-2169.381 -2657.791,-2169.501c-1311.216,-0.12 -2406.468,932.162 -2658.293,2169.501l5316.089,0l-0.005,0Z"/><path d="M73172.085,16332.07c503.459,-2474.932 2694.083,-4339.749 5316.692,-4339.504c2622.264,0.244 4812.304,1864.969 5315.687,4339.504c71.388,350.93 108.853,714.126 108.819,1086.007c-0.033,371.177 -37.426,733.698 -108.614,1083.997l-7974.54,0c251.591,1237.392 1346.675,2169.884 2657.896,2170.003c886.509,0.081 1674.301,-426.046 2169.458,-1084.499l2803.725,0c-837.88,1915.47 -2750.474,3255.211 -4973.432,3255.005c-2622.618,-0.244 -4812.897,-1865.477 -5315.893,-4340.509c-66.45,-326.97 -103.45,-664.583 -108.111,-1009.948l0,-149.083c4.666,-345.724 41.738,-683.681 108.317,-1010.972l-0.005,0Zm7974.234,0c-251.787,-1237.143 -1346.752,-2169.381 -2657.791,-2169.501c-1311.216,-0.12 -2406.468,932.162 -2658.293,2169.501l5316.089,0l-0.005,0Z"/><path d="M61508.689,16332.697c503.215,-2475.243 2693.987,-4340.375 5316.821,-4340.131c2427.093,0.225 4483.913,1597.721 5175.777,3797.633l-2826.638,0c-468.928,-971.866 -1344.627,-1626.51 -2346.823,-1627.625l-2.565,0c-1180.226,-0.244 -2185.427,906.345 -2558.159,2170.128c-73.853,250.399 -122.874,514.829 -143.509,789.026c-7.336,97.488 -11.083,196.21 -11.083,295.975c0,99.765 3.747,198.488 11.088,295.98c20.635,274.192 69.656,538.622 143.509,789.022c372.68,1263.606 1377.651,2169.874 2557.657,2170.128l2.972,0c1002.282,-1.072 1878.057,-655.787 2346.986,-1627.754l2826.537,0c-692.017,2200.214 -2749.345,3797.733 -5176.744,3797.508c-2622.398,-0.244 -4812.529,-1865.161 -5315.763,-4339.883c-71.34,-350.816 -108.776,-713.882 -108.743,-1085.629c0.033,-371.311 37.45,-733.956 108.69,-1084.375l-0.01,-0.005Z"/><path d="M29500.762,16332.07c503.459,-2474.932 2694.083,-4339.749 5316.692,-4339.504c2622.264,0.244 4812.304,1864.969 5315.687,4339.504c71.388,350.93 108.853,714.126 108.819,1086.007c-0.033,371.177 -37.426,733.698 -108.614,1083.997l-7974.54,0c251.591,1237.392 1346.675,2169.884 2657.896,2170.003c886.509,0.081 1674.301,-426.046 2169.458,-1084.499l2803.725,0c-837.88,1915.47 -2750.474,3255.211 -4973.432,3255.005c-2622.618,-0.244 -4812.897,-1865.477 -5315.893,-4340.509c-66.45,-326.97 -103.45,-664.583 -108.111,-1009.948l0,-149.083c4.666,-345.724 41.738,-683.681 108.317,-1010.972l-0.005,0Zm7974.234,0c-251.787,-1237.143 -1346.752,-2169.381 -2657.791,-2169.501c-1311.216,-0.12 -2406.468,932.162 -2658.293,2169.501l5316.089,0l-0.005,0Z"/><path d="M7419.979,11449.358l2441.596,0l0,2034.504l-2848.683,0l0,7324.217l2848.683,0l0,2034.504l-2441.596,0c-138.688,0 -274.688,-11.588 -407.092,-33.846c-1021.721,-171.767 -1828.971,-978.996 -2000.683,-2000.658c-22.242,-132.342 -33.821,-268.279 -33.821,-406.9l0,-6510.417c0,-138.621 11.579,-274.558 33.821,-406.9c171.712,-1021.663 978.963,-1828.896 2000.683,-2000.658c132.4,-22.258 268.404,-33.846 407.092,-33.846Z" style="fill:#ec0000;"/><path d="M23288.933,13483.867l-2848.683,0l0,-2034.504l2441.596,0c138.688,0 274.688,11.587 407.092,33.846c1021.721,171.767 1828.971,978.996 2000.683,2000.658c22.242,132.342 33.821,268.279 33.821,406.9l0,6820.333c-4.129,32.533 -8.9,64.862 -14.3,96.983c-172.804,1028.162 -989.258,1839.154 -2020.208,2003.858c-126.233,20.167 -255.688,30.646 -387.567,30.646l-2441.596,0l0,-2034.504l2829.162,0l0,-7324.217Z" style="fill:#ec0000;"/><circle cx="15150.912" cy="17145.975" r="2034.504" style="fill:#ec0000;"/><circle cx="20033.725" cy="17145.975" r="2034.504" style="fill:#ec0000;"/><circle cx="10268.1" cy="17145.975" r="2034.504" style="fill:#ec0000;"/><g id="STUDIO"><g transform="matrix(8333.333333,0,0,8333.333333,82441.614252,32982.559375)"></g><text x="50959.681px" y="32982.559px" style="font-family:'ArialMT', 'Arial', sans-serif;font-size:8333.333px;fill:#f00;">STUDIO</text></g></svg>