<?xml version="1.0" encoding="UTF-8" standalone="no"?><!DOCTYPE svg PUBLIC "-//W3C//DTD SVG 1.1//EN" "http://www.w3.org/Graphics/SVG/1.1/DTD/svg11.dtd"><svg width="100%" height="100%" viewBox="0 0 300 300" version="1.1" xmlns="http://www.w3.org/2000/svg" xmlns:xlink="http://www.w3.org/1999/xlink" xml:space="preserve" xmlns:serif="http://www.serif.com/" style="fill-rule:evenodd;clip-rule:evenodd;stroke-linejoin:round;stroke-miterlimit:2;"><path d="M36.003,57.857l36.003,0l0,32.143l-42.006,0l0,115.714l42.006,0l0,32.143l-36.003,0c-2.045,0 -4.05,-0.183 -6.003,-0.535c-15.066,-2.714 -26.969,-15.467 -29.501,-31.608c-0.328,-2.091 -0.499,-4.239 -0.499,-6.429l0,-102.857c0,-2.19 0.171,-4.338 0.499,-6.429c2.532,-16.141 14.435,-28.894 29.501,-31.608c1.952,-0.352 3.958,-0.535 6.003,-0.535Z"/><path d="M270,90l-42.006,-0l0,-32.143l36.003,0c2.045,0 4.05,0.183 6.003,0.535c15.066,2.714 26.969,15.467 29.501,31.608c0.328,2.091 0.499,4.239 0.499,6.429l0,107.753c-0.061,0.514 -0.131,1.025 -0.211,1.532c-2.548,16.244 -14.587,29.057 -29.789,31.659c-1.861,0.319 -3.77,0.484 -5.715,0.484l-36.003,0l0,-32.143l41.718,0l0,-115.714Z"/><circle cx="150" cy="147.857" r="30"/><circle cx="222" cy="147.857" r="30"/><circle cx="78" cy="147.857" r="30"/></svg>