<svg xmlns="http://www.w3.org/2000/svg" viewBox="0 0 512 512">
  <g fill="#ec0000" transform="translate(256 256) scale(7.2) translate(-29.45 -32)">
    <path d="M9.201,14l7.201,0l0,6.429l-8.401,0l0,23.143l8.401,0l0,6.429l-7.201,0c-0.409,0 -0.81,-0.037 -1.201,-0.107c-3.013,-0.543 -5.394,-3.093 -5.9,-6.322c-0.066,-0.418 -0.1,-0.848 -0.1,-1.286l0,-20.571c0,-0.438 0.034,-0.868 0.1,-1.286c0.506,-3.228 2.887,-5.779 5.9,-6.322c0.39,-0.07 0.792,-0.107 1.201,-0.107l0,0Z"/>
    <path d="M56,20.429l-8.401,0l0,-6.429l7.201,0c0.409,0 0.81,0.037 1.201,0.107c3.013,0.543 5.394,3.093 5.9,6.322c0.066,0.418 0.1,0.848 0.1,1.286l0,21.551c-0.012,0.103 -0.026,0.205 -0.042,0.306c-0.51,3.249 -2.917,5.811 -5.958,6.332c-0.372,0.064 -0.754,0.097 -1.143,0.097l-7.201,0l0,-6.429l8.344,0l0,-23.143Z"/>
    <circle cx="32" cy="32" r="6"/>
    <circle cx="46.4" cy="32" r="6"/>
    <circle cx="17.6" cy="32" r="6"/>
  </g>
</svg>
